<?xml version="1.0" encoding="UTF-8" standalone="no"?>
<!-- Created with Inkscape (http://www.inkscape.org/) -->

<svg
   width="63.928001mm"
   height="63.928001mm"
   viewBox="0 0 63.928001 63.928001"
   version="1.1"
   id="svg1"
   inkscape:version="1.4 (e7c3feb100, 2024-10-09)"
   sodipodi:docname="favicon.svg"
   inkscape:export-filename="icon-512.png"
   inkscape:export-xdpi="203.42885"
   inkscape:export-ydpi="203.42885"
   xmlns:inkscape="http://www.inkscape.org/namespaces/inkscape"
   xmlns:sodipodi="http://sodipodi.sourceforge.net/DTD/sodipodi-0.dtd"
   xmlns="http://www.w3.org/2000/svg"
   xmlns:svg="http://www.w3.org/2000/svg">
  <sodipodi:namedview
     id="namedview1"
     pagecolor="#ffffff"
     bordercolor="#000000"
     borderopacity="0.25"
     inkscape:showpageshadow="2"
     inkscape:pageopacity="0.0"
     inkscape:pagecheckerboard="0"
     inkscape:deskcolor="#d1d1d1"
     inkscape:document-units="mm"
     inkscape:zoom="0.65210438"
     inkscape:cx="8.4342326"
     inkscape:cy="147.2157"
     inkscape:window-width="1920"
     inkscape:window-height="942"
     inkscape:window-x="0"
     inkscape:window-y="0"
     inkscape:window-maximized="1"
     inkscape:current-layer="layer1" />
  <defs
     id="defs1">
    <linearGradient
       x1="0"
       y1="0"
       x2="1"
       y2="0"
       gradientUnits="userSpaceOnUse"
       gradientTransform="matrix(15.172745,-26.279965,26.279965,15.172745,172.21496,97.741387)"
       spreadMethod="pad"
       id="linearGradient7">
      <stop
         style="stop-opacity:1;stop-color:#00a7e1 icc-color(sRGB IEC61966-2.1, 0, 0.65489197, 0.88233948);"
         offset="0"
         id="stop6" />
      <stop
         style="stop-opacity:1;stop-color:#9ddcf9 icc-color(sRGB IEC61966-2.1, 0.61567688, 0.86273193, 0.97647095);"
         offset="1"
         id="stop7" />
    </linearGradient>
    <linearGradient
       x1="0"
       y1="0"
       x2="1"
       y2="0"
       gradientUnits="userSpaceOnUse"
       gradientTransform="matrix(15.365809,-26.61436,26.61436,15.365809,140.1918,93.977504)"
       spreadMethod="pad"
       id="linearGradient9">
      <stop
         style="stop-opacity:1;stop-color:#e63312 icc-color(sRGB IEC61966-2.1, 0.90194702, 0.19999695, 0.07058716);"
         offset="0"
         id="stop8" />
      <stop
         style="stop-opacity:1;stop-color:#fdc300 icc-color(sRGB IEC61966-2.1, 0.99215698, 0.76469421, 0);"
         offset="1"
         id="stop9" />
    </linearGradient>
  </defs>
  <g
     inkscape:label="Capa 1"
     inkscape:groupmode="layer"
     id="layer1"
     transform="translate(-131.51956,-51.511975)">
    <g
       id="g1">
      <path
         d="m 188.15473,92.043162 c -2.85081,0 -4.78155,-2.145586 -4.78155,-4.873623 0,-2.667 1.9618,-4.720518 4.75086,-4.720518 2.78939,0 4.81258,1.992487 4.81258,4.720518 0,2.758729 -1.9618,4.873623 -4.78189,4.873623 m 0.42934,-11.678351 c -0.64384,0 -1.22627,0.09172 -1.80869,0.27587 l 4.68982,-6.528858 -1.71662,-1.287285 -6.95783,9.655174 c -1.53284,2.145594 -1.68592,3.923242 -1.68592,4.689827 0,3.218389 2.26835,6.957825 7.08059,6.957825 4.0767,0 7.01921,-2.942511 7.01921,-7.019208 0,-3.800827 -2.69735,-6.743345 -6.62056,-6.743345 m -11.64873,3.095976 c 1.22589,-1.747308 1.62454,-3.004256 1.62454,-4.383264 0,-3.524954 -2.69735,-6.099879 -6.31436,-6.099879 -2.54389,0 -3.98463,1.103487 -4.84293,2.08421 -0.79693,0.919692 -1.4404,2.176285 -1.53247,4.230159 h 2.26801 c 0.0307,-1.042107 0.27585,-1.808692 0.6745,-2.421467 0.76623,-1.164873 1.96181,-1.808692 3.4022,-1.808692 2.42181,0 4.0767,1.685925 4.0767,3.984625 0,0.827617 -0.2145,1.808692 -1.13419,3.126669 -0.49035,0.735541 -1.86973,2.360435 -2.39078,2.97321 l -7.4482,8.61342 h 13.21083 v -2.084572 h -8.64375 l 4.26047,-4.812231 c 0.82762,-0.950384 1.93112,-2.206977 2.78943,-3.402188"
         style="fill:url(#linearGradient7);stroke:none;stroke-width:0.352777"
         id="path9" />
      <path
         d="m 162.66723,82.756996 c -0.0575,-0.168982 -0.18203,-0.298098 -0.33372,-0.348546 l -5.0151,-1.653117 1.55224,-11.029243 c 0.037,-0.264936 -0.0942,-0.527754 -0.31399,-0.629002 v 0 c -0.22153,-0.09984 -0.46847,-0.01199 -0.59335,0.212725 l -7.98232,14.376045 c -0.0836,0.150283 -0.0984,0.339373 -0.0409,0.508354 0.0575,0.169334 0.18203,0.29845 0.33371,0.348896 l 5.0151,1.652765 -1.55223,11.029603 c -0.037,0.264927 0.0939,0.527738 0.31398,0.628994 0.0741,0.03352 0.14991,0.04622 0.22437,0.0395 0.14817,-0.01296 0.28609,-0.102288 0.36899,-0.252227 L 162.62633,83.2657 c 0.0836,-0.150636 0.0984,-0.339371 0.0409,-0.508704 M 134.9502,75.141581 c -1.83904,1.777648 -3.1877,4.474988 -3.1877,7.693377 0,3.279775 1.34866,5.977112 3.1877,7.755112 1.71661,1.685581 4.26085,2.973202 8.03097,2.973202 1.22592,0 2.69735,-0.183779 4.5057,-1.103471 v -5.425376 c -1.80835,1.777645 -3.46358,2.114909 -4.68985,2.114909 -2.51317,0 -3.98462,-1.287303 -4.41359,-1.71627 -0.91969,-0.889 -1.778,-2.391127 -1.778,-4.506031 0,-1.961796 0.79692,-3.617029 1.93111,-4.720519 1.07278,-1.042103 2.45216,-1.59385 4.16841,-1.59385 2.17665,0 3.7398,1.07315 4.78192,2.176288 v -5.456063 c -1.9925,-0.858308 -3.55566,-1.134178 -4.90432,-1.134178 -3.1877,0 -5.82401,1.195562 -7.63235,2.94287"
         style="fill:url(#linearGradient9);stroke:none;stroke-width:0.352777"
         id="path10" />
    </g>
  </g>
</svg>
